<svg fill="none" height="32" viewBox="0 0 32 32" width="32" xmlns="http://www.w3.org/2000/svg">
  <g clip-path="url(#clip0)">
    <path
      d="M13.8193 12.5278L14.1853 18.6528C14.206 18.9997 14.4978 19.2705 14.8508 19.2705H17.1491C17.3191 19.2705 17.4827 19.2066 17.6065 19.0917C17.7302 18.9769 17.8046 18.8199 17.8146 18.6528L18.1806 12.5278C18.2031 12.1509 17.8987 11.833 17.5151 11.833H14.4847C14.1012 11.833 13.7968 12.1509 13.8193 12.5278ZM18.3333 22.333C18.3333 23.6015 17.2887 24.6299 16 24.6299C14.7113 24.6299 13.6667 23.6015 13.6667 22.333C13.6667 21.0645 14.7113 20.0361 16 20.0361C17.2887 20.0361 18.3333 21.0645 18.3333 22.333ZM18.3098 2.64469C17.2858 0.897367 14.7161 0.894196 13.6902 2.64469L0.359842 25.3962C-0.663603 27.1426 0.617675 29.333 2.66968 29.333H29.33C31.3781 29.333 32.6653 27.1459 31.6398 25.3962L18.3098 2.64469ZM2.95506 26.2159L15.7113 4.45063C15.8396 4.23177 16.1605 4.23177 16.2887 4.45063L29.045 26.2159C29.1732 26.4346 29.0128 26.708 28.7562 26.708H3.24379C2.98729 26.708 2.8269 26.4347 2.95506 26.2159Z"
      fill="white" />
  </g>
  <defs>
    <clipPath id="clip0">
      <rect fill="white" height="32" width="32" />
    </clipPath>
  </defs>
</svg>
