<svg fill="none" height="10" viewBox="0 0 10 10" width="10" xmlns="http://www.w3.org/2000/svg">
  <path
    d="M3.51562 5.625H2.73438C2.60547 5.625 2.5 5.51953 2.5 5.39062V4.60938C2.5 4.48047 2.60547 4.375 2.73438 4.375H3.51562C3.64453 4.375 3.75 4.48047 3.75 4.60938V5.39062C3.75 5.51953 3.64453 5.625 3.51562 5.625ZM5.625 5.39062V4.60938C5.625 4.48047 5.51953 4.375 5.39062 4.375H4.60938C4.48047 4.375 4.375 4.48047 4.375 4.60938V5.39062C4.375 5.51953 4.48047 5.625 4.60938 5.625H5.39062C5.51953 5.625 5.625 5.51953 5.625 5.39062ZM7.5 5.39062V4.60938C7.5 4.48047 7.39453 4.375 7.26562 4.375H6.48438C6.35547 4.375 6.25 4.48047 6.25 4.60938V5.39062C6.25 5.51953 6.35547 5.625 6.48438 5.625H7.26562C7.39453 5.625 7.5 5.51953 7.5 5.39062ZM5.625 7.26562V6.48438C5.625 6.35547 5.51953 6.25 5.39062 6.25H4.60938C4.48047 6.25 4.375 6.35547 4.375 6.48438V7.26562C4.375 7.39453 4.48047 7.5 4.60938 7.5H5.39062C5.51953 7.5 5.625 7.39453 5.625 7.26562ZM3.75 7.26562V6.48438C3.75 6.35547 3.64453 6.25 3.51562 6.25H2.73438C2.60547 6.25 2.5 6.35547 2.5 6.48438V7.26562C2.5 7.39453 2.60547 7.5 2.73438 7.5H3.51562C3.64453 7.5 3.75 7.39453 3.75 7.26562ZM7.5 7.26562V6.48438C7.5 6.35547 7.39453 6.25 7.26562 6.25H6.48438C6.35547 6.25 6.25 6.35547 6.25 6.48438V7.26562C6.25 7.39453 6.35547 7.5 6.48438 7.5H7.26562C7.39453 7.5 7.5 7.39453 7.5 7.26562ZM9.375 2.1875V9.0625C9.375 9.58008 8.95508 10 8.4375 10H1.5625C1.04492 10 0.625 9.58008 0.625 9.0625V2.1875C0.625 1.66992 1.04492 1.25 1.5625 1.25H2.5V0.234375C2.5 0.105469 2.60547 0 2.73438 0H3.51562C3.64453 0 3.75 0.105469 3.75 0.234375V1.25H6.25V0.234375C6.25 0.105469 6.35547 0 6.48438 0H7.26562C7.39453 0 7.5 0.105469 7.5 0.234375V1.25H8.4375C8.95508 1.25 9.375 1.66992 9.375 2.1875ZM8.4375 8.94531V3.125H1.5625V8.94531C1.5625 9.00977 1.61523 9.0625 1.67969 9.0625H8.32031C8.38477 9.0625 8.4375 9.00977 8.4375 8.94531Z"
    fill="#B3B7BF" />
</svg>
