<svg fill="none" height="12" viewBox="0 0 12 12" width="12" xmlns="http://www.w3.org/2000/svg">
  <g clip-path="url(#clip0)">
    <path
      d="M3.97059 6.70548H3.08824C2.94265 6.70548 2.82353 6.58636 2.82353 6.44077L2.82353 5.55842C2.82353 5.41283 2.94265 5.29371 3.08824 5.29371H3.97059C4.11618 5.29371 4.2353 5.41283 4.2353 5.55842L4.2353 6.44077C4.2353 6.58636 4.11618 6.70548 3.97059 6.70548ZM6.35295 6.44077V5.55842C6.35295 5.41283 6.23383 5.29371 6.08824 5.29371H5.20589C5.0603 5.29371 4.94118 5.41283 4.94118 5.55842V6.44077C4.94118 6.58636 5.0603 6.70548 5.20589 6.70548H6.08824C6.23383 6.70548 6.35295 6.58636 6.35295 6.44077ZM8.47059 6.44077V5.55842C8.47059 5.41283 8.35148 5.29371 8.20589 5.29371H7.32353C7.17795 5.29371 7.05883 5.41283 7.05883 5.55842V6.44077C7.05883 6.58636 7.17795 6.70548 7.32353 6.70548H8.20589C8.35148 6.70548 8.47059 6.58636 8.47059 6.44077ZM6.35295 8.55842V7.67607C6.35295 7.53048 6.23383 7.41136 6.08824 7.41136H5.20589C5.0603 7.41136 4.94118 7.53048 4.94118 7.67607V8.55842C4.94118 8.70401 5.0603 8.82313 5.20589 8.82313H6.08824C6.23383 8.82313 6.35295 8.70401 6.35295 8.55842ZM4.2353 8.55842V7.67607C4.2353 7.53048 4.11618 7.41136 3.97059 7.41136H3.08824C2.94265 7.41136 2.82353 7.53048 2.82353 7.67607V8.55842C2.82353 8.70401 2.94265 8.82313 3.08824 8.82313H3.97059C4.11618 8.82313 4.2353 8.70401 4.2353 8.55842ZM8.47059 8.55842V7.67607C8.47059 7.53048 8.35148 7.41136 8.20589 7.41136H7.32353C7.17795 7.41136 7.05883 7.53048 7.05883 7.67607V8.55842C7.05883 8.70401 7.17795 8.82313 7.32353 8.82313L8.20589 8.82313C8.35148 8.82313 8.47059 8.70401 8.47059 8.55842ZM10.5882 2.82313L10.5882 10.5878C10.5882 11.1724 10.114 11.6467 9.52942 11.6467L1.76471 11.6467C1.18015 11.6467 0.705887 11.1724 0.705887 10.5878L0.705887 2.82313C0.705887 2.23857 1.18015 1.7643 1.76471 1.7643H2.82353V0.617245C2.82353 0.471657 2.94265 0.352539 3.08824 0.352539L3.97059 0.352539C4.11618 0.352539 4.2353 0.471657 4.2353 0.617245V1.7643L7.05883 1.7643V0.617245C7.05883 0.471657 7.17795 0.352539 7.32353 0.352539L8.20589 0.352539C8.35148 0.352539 8.47059 0.471657 8.47059 0.617245V1.7643L9.52942 1.7643C10.114 1.7643 10.5882 2.23857 10.5882 2.82313ZM9.52942 10.4555L9.52942 3.88195L1.76471 3.88195L1.76471 10.4555C1.76471 10.5283 1.82427 10.5878 1.89706 10.5878L9.39707 10.5878C9.46986 10.5878 9.52942 10.5283 9.52942 10.4555Z"
      fill="#6F7072" />
  </g>
  <defs>
    <clipPath id="clip0">
      <rect fill="white" height="11.2941" transform="translate(0 0.352539)" width="11.2941" />
    </clipPath>
  </defs>
</svg>
