<svg width="16" height="16" viewBox="0 0 16 16" fill="none" xmlns="http://www.w3.org/2000/svg">
  <g clip-path="url(#clip0_1033_125181)">
    <path
      d="M15.5571 3.06188L12.9355 0.440625C12.6543 0.159375 12.273 0 11.8764 0H5.49957C4.67176 0.003125 3.99988 0.675 3.99988 1.50281V4H5.49957V1.50281H10.4986V4.75219C10.4986 5.16781 10.833 5.50187 11.2486 5.50187H14.4999V14.5003H6.99988V16H14.4977C15.3258 16 15.9999 15.3281 15.9999 14.5003V4.12406C15.9999 3.7275 15.8383 3.34313 15.5571 3.06188V3.06188ZM11.9983 4.00219V1.62469L14.3761 4.00219H11.9983V4.00219ZM7.73176 10.5712C7.96301 10.3359 8.05332 9.99312 7.96863 9.67156C7.79894 9.02625 7.79863 9.11719 7.96863 8.47094C8.05332 8.14938 7.96301 7.80656 7.73176 7.57125C7.26738 7.09875 7.31207 7.17719 7.14207 6.53156C7.05738 6.21 6.81082 5.95906 6.49488 5.87313C5.86113 5.70031 5.93738 5.745 5.47332 5.27281C5.24207 5.0375 4.90519 4.94563 4.58926 5.03188C3.95426 5.205 4.04363 5.20469 3.40957 5.03188C3.09394 4.94563 2.75707 5.03781 2.52582 5.27281C2.05988 5.74719 2.13519 5.70094 1.50426 5.87313C1.18832 5.95938 0.941755 6.21031 0.857068 6.53156C0.686443 7.17969 0.732068 7.09812 0.26738 7.57125C0.0361301 7.80656 -0.0541825 8.14938 0.030505 8.47094C0.200818 9.11813 0.19988 9.02687 0.030505 9.67156C-0.0541825 9.99312 0.0361301 10.3359 0.26738 10.5712C0.731443 11.0434 0.687068 10.9653 0.857068 11.6109C0.941755 11.9325 1.18832 12.1834 1.50426 12.2694C1.95144 12.3912 1.86426 12.3622 1.99926 12.4256V16L3.99926 15L5.99926 16V12.4256C6.13394 12.3625 6.04676 12.3912 6.49426 12.2694C6.81019 12.1831 7.05676 11.9322 7.14144 11.6109C7.31269 10.9625 7.26707 11.0441 7.73176 10.5712V10.5712ZM3.99988 11C2.89551 11 1.99988 10.1047 1.99988 9C1.99988 7.89531 2.89551 7 3.99988 7C5.10426 7 5.99988 7.89531 5.99988 9C5.99988 10.1047 5.10426 11 3.99988 11Z"
      fill="#6F7072" />
  </g>
  <defs>
    <clipPath id="clip0_1033_125181">
      <rect width="16" height="16" fill="white" />
    </clipPath>
  </defs>
</svg>
