<svg fill="#6F7072" height="24" viewBox="0 0 24 24" width="24" xmlns="http://www.w3.org/2000/svg">
  <path
    d="M23.4375 18C23.7469 18 24 18.2531 24 18.5625V20.4375C24 20.7469 23.7469 21 23.4375 21H0.5625C0.253125 21 0 20.7469 0 20.4375V3.5625C0 3.25313 0.253125 3 0.5625 3H2.4375C2.74687 3 3 3.25313 3 3.5625V18H23.4375ZM17.4703 7.47656L13.5 10.125L9.50156 4.79531C9.2625 4.47656 8.775 4.5 8.56875 4.84219L4.5 11.625V16.5H22.5L18.2859 7.69687C18.1359 7.39219 17.7516 7.28906 17.4703 7.47656V7.47656Z"
    fill="#6F7072" />
</svg>
