<svg width="12" height="12" viewBox="0 0 12 12" fill="none" xmlns="http://www.w3.org/2000/svg">
  <path d="M10.8443 1.97662L9.6562 0.788992C9.07434 0.207103 8.13247 0.207014 7.55047 0.78897L0.549483 7.7442L0.00725468 11.0309C-0.0517527 11.3886 0.258019 11.6984 0.615792 11.6394L3.90245 11.0972L10.8582 4.09618C11.439 3.51535 11.4445 2.57679 10.8443 1.97662ZM2.66126 7.0143L6.41698 3.28294L8.36369 5.22965L4.63235 8.98537V8.07312H3.57353V7.0143H2.66126ZM1.81173 10.4584L1.18828 9.83494L1.45608 8.2117L1.86196 7.80842H2.77941V8.86724H3.83823L3.83823 9.78467L3.43495 10.1906L1.81173 10.4584ZM10.1717 3.40987L10.1706 3.41099L10.1694 3.41212L9.10996 4.47853L7.16812 2.53669L8.23454 1.47721L8.23564 1.4761L8.23674 1.475C8.43851 1.27325 8.76567 1.27076 8.96989 1.47498L10.1578 2.66293C10.3757 2.88081 10.3771 3.20445 10.1717 3.40987Z" fill="#6F7072"/>
</svg>
