<svg fill="#6F7072" height="24" viewBox="0 0 18 24" width="18" xmlns="http://www.w3.org/2000/svg">
  <path
    d="M17.3391 4.59281L13.4072 0.660938C12.9853 0.239063 12.4134 0 11.8186 0H2.24953C1.00781 0.0046875 0 1.0125 0 2.25422V21.7505C0 22.9922 1.00781 24 2.24953 24H15.7505C16.9922 24 18 22.9922 18 21.7505V6.18609C18 5.59125 17.7609 5.01469 17.3391 4.59281V4.59281ZM12.0014 1.52766C12.1327 1.56047 12.2498 1.62609 12.3483 1.72453L16.2802 5.65641C16.3786 5.75484 16.4442 5.87203 16.477 6.00328H12.0014V1.52766V1.52766ZM16.5005 21.7505C16.5005 22.163 16.163 22.5005 15.7505 22.5005H2.24953C1.83703 22.5005 1.49953 22.163 1.49953 21.7505V2.25422C1.49953 1.84172 1.83703 1.5 2.24953 1.5H10.5014V6.37828C10.5014 7.00172 11.003 7.5 11.6264 7.5H16.5005V21.7505ZM5.625 12H5.25C4.00734 12 3 13.0073 3 14.25V15.75C3 16.9927 4.00734 18 5.25 18H5.625C5.83219 18 6 17.8322 6 17.625V16.875C6 16.6678 5.83219 16.5 5.625 16.5H5.25C4.83562 16.5 4.5 16.1644 4.5 15.75V14.25C4.5 13.8356 4.83562 13.5 5.25 13.5H5.625C5.83219 13.5 6 13.3322 6 13.125V12.375C6 12.1678 5.83219 12 5.625 12ZM10.875 12C10.6678 12 10.5 12.1678 10.5 12.375V13.35C10.5 15.0131 11.1037 16.5792 12.2006 17.7605C12.3422 17.9128 12.5414 18 12.75 18C12.9586 18 13.1578 17.9128 13.2994 17.7605C14.3967 16.5792 15 15.0131 15 13.35V12.375C15 12.1678 14.8322 12 14.625 12H13.875C13.6678 12 13.5 12.1678 13.5 12.375V13.35C13.5 14.3002 13.2328 15.233 12.75 16.0162C12.2672 15.2334 12 14.3002 12 13.35V12.375C12 12.1678 11.8322 12 11.625 12H10.875ZM8.41172 13.9908C8.34703 13.935 8.31234 13.8713 8.31234 13.8108C8.31234 13.6645 8.52094 13.5005 8.80031 13.5005H9.375C9.58219 13.5005 9.75 13.3327 9.75 13.1255V12.3755C9.75 12.1683 9.58219 12.0005 9.375 12.0005H8.79984C7.70344 12.0005 6.81188 12.8128 6.81188 13.8108C6.81188 14.3105 7.03969 14.7914 7.43672 15.1298L8.46281 16.0097C8.5275 16.0655 8.56219 16.1292 8.56219 16.1897C8.56219 16.3359 8.35359 16.5 8.07422 16.5H7.5C7.29281 16.5 7.125 16.6678 7.125 16.875V17.625C7.125 17.8322 7.29281 18 7.5 18H8.07516C9.17156 18 10.0631 17.1877 10.0631 16.1897C10.0631 15.69 9.83531 15.2091 9.43828 14.8706L8.41172 13.9908Z"
    fill="#6F7072" />
</svg>
