<svg fill="#6F7072" height="16" viewBox="0 0 24 16" width="20" xmlns="http://www.w3.org/2000/svg">
  <path
    d="M12 3.40625C11.5584 3.41304 11.12 3.48211 10.6983 3.61133C10.8934 3.94902 10.9972 4.33029 11 4.71875C11 5.02038 10.9396 5.31906 10.8224 5.59773C10.7051 5.8764 10.5332 6.1296 10.3166 6.34289C10.0999 6.55617 9.84267 6.72536 9.55957 6.84079C9.27648 6.95621 8.97306 7.01562 8.66664 7.01562C8.27202 7.01293 7.88469 6.91069 7.54164 6.71867C7.27099 7.64267 7.30254 8.62707 7.63181 9.53244C7.96109 10.4378 8.5714 11.2182 9.3763 11.7632C10.1812 12.3082 11.1399 12.59 12.1165 12.5688C13.0932 12.5476 14.0384 12.2245 14.8181 11.6452C15.5978 11.0659 16.1726 10.2597 16.4611 9.34096C16.7495 8.42219 16.737 7.43738 16.4253 6.52601C16.1135 5.61464 15.5184 4.82293 14.7242 4.26301C13.9299 3.70309 12.9769 3.40335 12 3.40625V3.40625ZM23.855 7.40117C21.5954 3.06131 17.1221 0.125 12 0.125C6.87789 0.125 2.40331 3.06336 0.144977 7.40158C0.0496613 7.58718 0 7.79224 0 8.00021C0 8.20817 0.0496613 8.41323 0.144977 8.59883C2.40456 12.9387 6.87789 15.875 12 15.875C17.1221 15.875 21.5966 12.9366 23.855 8.59842C23.9503 8.41282 24 8.20776 24 7.99979C24 7.79183 23.9503 7.58677 23.855 7.40117V7.40117ZM12 13.9062C7.88956 13.9062 4.12123 11.6504 2.08623 8C4.12123 4.34961 7.88914 2.09375 12 2.09375C16.1108 2.09375 19.8787 4.34961 21.9137 8C19.8791 11.6504 16.1108 13.9062 12 13.9062Z"
    fill="#6F7072" />
</svg>
