<svg width="81" height="20" viewBox="0 0 81 20" fill="none" xmlns="http://www.w3.org/2000/svg">
  <path d="M0.5 2C0.5 0.895431 1.39543 0 2.5 0H78.5C79.6046 0 80.5 0.895431 80.5 2V18C80.5 19.1046 79.6046 20 78.5 20H2.5C1.39543 20 0.5 19.1046 0.5 18V2Z" fill="#37A350" fill-opacity="0.1"/>
  <g clip-path="url(#clip0)">
    <path d="M15.6467 7.05989L11.0444 11.5424L9.3533 9.89534C9.27131 9.81548 9.13837 9.81548 9.05636 9.89534L8.56149 10.3773C8.4795 10.4572 8.4795 10.5866 8.56149 10.6665L10.8959 12.9401C10.9779 13.02 11.1108 13.02 11.1928 12.9401L16.4385 7.83107C16.5205 7.75122 16.5205 7.62174 16.4385 7.54187L15.9436 7.05989C15.8616 6.98004 15.7287 6.98004 15.6467 7.05989Z" fill="#37A350"/>
  </g>
  <path d="M29.8013 10.186H26.6538V13.5H25.2949V5.67969H30.2632V6.77539H26.6538V9.10107H29.8013V10.186ZM32.7769 13.5H31.4233V5.67969H32.7769V13.5ZM40.6509 13.5H39.292L35.8062 7.95166V13.5H34.4473V5.67969H35.8062L39.3027 11.2495V5.67969H40.6509V13.5ZM43.6909 13.5H42.3374V5.67969H43.6909V13.5ZM49.4487 11.4858C49.4487 11.1421 49.327 10.8771 49.0835 10.6909C48.8436 10.5047 48.4085 10.3167 47.7783 10.127C47.1481 9.93717 46.6468 9.72591 46.2744 9.49316C45.5618 9.04557 45.2056 8.46191 45.2056 7.74219C45.2056 7.11198 45.4616 6.59277 45.9736 6.18457C46.4893 5.77637 47.1571 5.57227 47.9771 5.57227C48.5213 5.57227 49.0065 5.67253 49.4326 5.87305C49.8587 6.07357 50.1935 6.36003 50.437 6.73242C50.6805 7.10124 50.8022 7.51123 50.8022 7.9624H49.4487C49.4487 7.5542 49.3198 7.23551 49.062 7.00635C48.8078 6.7736 48.4425 6.65723 47.9663 6.65723C47.5223 6.65723 47.1768 6.75212 46.9297 6.94189C46.6862 7.13167 46.5645 7.39665 46.5645 7.73682C46.5645 8.02327 46.6969 8.26318 46.9619 8.45654C47.2269 8.64632 47.6637 8.83252 48.2725 9.01514C48.8812 9.19417 49.37 9.40007 49.7388 9.63281C50.1076 9.86198 50.3779 10.127 50.5498 10.4277C50.7217 10.7249 50.8076 11.0741 50.8076 11.4751C50.8076 12.1268 50.557 12.646 50.0557 13.0327C49.5579 13.4159 48.8812 13.6074 48.0254 13.6074C47.4596 13.6074 46.9386 13.5036 46.4624 13.2959C45.9897 13.0846 45.6209 12.7946 45.356 12.4258C45.0946 12.057 44.9639 11.6273 44.9639 11.1367H46.3228C46.3228 11.5807 46.4696 11.9245 46.7632 12.168C47.0568 12.4115 47.4775 12.5332 48.0254 12.5332C48.498 12.5332 48.8525 12.4383 49.0889 12.2485C49.3288 12.0552 49.4487 11.8009 49.4487 11.4858ZM58.209 13.5H56.8555V10.0249H53.3589V13.5H52V5.67969H53.3589V8.93457H56.8555V5.67969H58.209V13.5ZM64.3911 10.0088H61.1792V12.415H64.9336V13.5H59.8203V5.67969H64.896V6.77539H61.1792V8.93457H64.3911V10.0088ZM66.04 13.5V5.67969H68.3496C69.0407 5.67969 69.653 5.83366 70.1865 6.1416C70.7236 6.44954 71.139 6.88639 71.4326 7.45215C71.7262 8.0179 71.873 8.66602 71.873 9.39648V9.78857C71.873 10.5298 71.7244 11.1815 71.4272 11.7437C71.1336 12.3058 70.7129 12.7391 70.165 13.0435C69.6208 13.3478 68.9959 13.5 68.2905 13.5H66.04ZM67.3989 6.77539V12.415H68.2852C68.9977 12.415 69.5438 12.193 69.9233 11.749C70.3065 11.3014 70.5016 10.6605 70.5088 9.82617V9.39111C70.5088 8.54248 70.3244 7.89437 69.9556 7.44678C69.5868 6.99919 69.0514 6.77539 68.3496 6.77539H67.3989Z" fill="#37A350"/>
  <defs>
    <clipPath id="clip0">
      <rect width="8" height="8" fill="white" transform="translate(8.5 6)"/>
    </clipPath>
  </defs>
</svg>
