<svg fill="none" height="12" viewBox="0 0 12 12" width="12" xmlns="http://www.w3.org/2000/svg">
  <g clip-path="url(#clip0_4242_181341)">
    <path clip-rule="evenodd"
          d="M12 1.5C12 2.325 11.325 3 10.5 3C9.675 3 9 2.325 9 1.5C9 0.675 9.675 0 10.5 0C11.325 0 12 0.675 12 1.5ZM0 4.49988C0 3.67488 0.675 2.99988 1.5 2.99988C2.325 2.99988 3 3.67488 3 4.49988C3 5.32488 2.325 5.99988 1.5 5.99988C0.675 5.99988 0 5.32488 0 4.49988ZM3.00001 7.50012C3.00001 6.67512 3.67501 6.00012 4.50001 6.00012C5.32501 6.00012 6.00001 6.67512 6.00001 7.50012C6.00001 8.32512 5.32501 9.00012 4.50001 9.00012C3.67501 9.00012 3.00001 8.32512 3.00001 7.50012ZM1.5 9C0.675 9 0 9.675 0 10.5C0 11.325 0.675 12 1.5 12C2.325 12 3 11.325 3 10.5C3 9.675 2.325 9 1.5 9ZM7.5 9C6.67499 9 5.99999 9.675 5.99999 10.5C5.99999 11.325 6.67499 12 7.5 12C8.325 12 9 11.325 9 10.5C9 9.675 8.325 9 7.5 9ZM9 7.50012C9 6.67512 9.675 6.00012 10.5 6.00012C11.325 6.00012 12 6.67512 12 7.50012C12 8.32512 11.325 9.00012 10.5 9.00012C9.675 9.00012 9 8.32512 9 7.50012ZM7.5 2.99988C6.67499 2.99988 5.99999 3.67488 5.99999 4.49988C5.99999 5.32488 6.67499 5.99988 7.5 5.99988C8.325 5.99988 9 5.32488 9 4.49988C9 3.67488 8.325 2.99988 7.5 2.99988ZM3.00001 1.5C3.00001 0.675 3.67501 0 4.50001 0C5.32501 0 6.00001 0.675 6.00001 1.5C6.00001 2.325 5.32501 3 4.50001 3C3.67501 3 3.00001 2.325 3.00001 1.5Z"
          fill="#5FC581"
          fill-rule="evenodd" />
  </g>
  <defs>
    <clipPath id="clip0_4242_181341">
      <rect fill="white" height="12" width="12" />
    </clipPath>
  </defs>
</svg>
