<svg fill="none" height="24" viewBox="0 0 24 24" width="24" xmlns="http://www.w3.org/2000/svg">
  <path
    d="M20.25 2.25H20.4375C20.7481 2.25 21 1.99814 21 1.6875V0.5625C21 0.251859 20.7481 0 20.4375 0H3.5625C3.25186 0 3 0.251859 3 0.5625V1.6875C3 1.99814 3.25186 2.25 3.5625 2.25H3.75C3.75 6.02644 5.25881 10.0222 8.30531 12C5.24527 13.9866 3.75 17.9953 3.75 21.75H3.5625C3.25186 21.75 3 22.0019 3 22.3125V23.4375C3 23.7481 3.25186 24 3.5625 24H20.4375C20.7481 24 21 23.7481 21 23.4375V22.3125C21 22.0019 20.7481 21.75 20.4375 21.75H20.25C20.25 17.9736 18.7412 13.9778 15.6947 12C18.7548 10.0134 20.25 6.00469 20.25 2.25ZM6 2.25H18C18 7.01344 15.3137 10.875 12 10.875C8.68627 10.875 6 7.01348 6 2.25ZM18 21.75H6C6 16.9866 8.68631 13.125 12 13.125C15.3137 13.125 18 16.9866 18 21.75Z"
    fill="#6F7072" />
  <circle cx="12" cy="16.5" fill="#6F7072" r="1.5" />
  <circle cx="12" cy="8.5" fill="#6F7072" r="1.5" />
  <circle cx="14.5" cy="5.5" fill="#6F7072" r="1.5" />
  <circle cx="9.5" cy="5.5" fill="#6F7072" r="1.5" />
</svg>
