<svg width="16" height="16" viewBox="0 0 16 16" fill="none" xmlns="http://www.w3.org/2000/svg">
  <path fill-rule="evenodd" clip-rule="evenodd" d="M8.63273 10.2517L6.78545 8.41099L6.80727 8.38899C8.07273 6.96633 8.97455 5.33099 9.50546 3.60033H11.6364V2.13366H6.54545V0.666992H5.09091V2.13366H0V3.59299H8.12364C7.63636 5.00833 6.86545 6.35033 5.81818 7.52366C5.14182 6.76833 4.58182 5.93966 4.13818 5.06699H2.68364C3.21455 6.26233 3.94182 7.39166 4.85091 8.41099L1.14909 12.0923L2.18182 13.1337L5.81818 9.46699L8.08 11.7477L8.63273 10.2517ZM12.727 6.53377H11.2725L7.99973 15.3338H9.45428L10.2688 13.1338H13.7234L14.5452 15.3338H15.9997L12.727 6.53377ZM12.0001 8.49154L10.8219 11.6669H13.1783L12.0001 8.49154Z" fill="#6F7072"/>
</svg>
