<svg fill="none" height="12" viewBox="0 0 12 12" width="12" xmlns="http://www.w3.org/2000/svg">
  <g clip-path="url(#clip0)">
    <path clip-rule="evenodd" d="M0 2.23512C0 1.71434 0.40903 1.29395 0.915739 1.29395C1.42245 1.29395 1.83148 1.71434 1.83148 2.23512C1.83148 2.75591 1.42245 3.1763 0.915739 3.1763C0.40903 3.1763 0 2.75591 0 2.23512ZM0 5.99993C0 5.47915 0.40903 5.05875 0.915739 5.05875C1.42245 5.05875 1.83148 5.47915 1.83148 5.99993C1.83148 6.52071 1.42245 6.94111 0.915739 6.94111C0.40903 6.94111 0 6.52071 0 5.99993ZM0.915739 8.8233C0.40903 8.8233 0 9.24997 0 9.76448C0 10.279 0.415135 10.7057 0.915739 10.7057C1.41634 10.7057 1.83148 10.279 1.83148 9.76448C1.83148 9.24997 1.42245 8.8233 0.915739 8.8233ZM11.2941 10.392L2.74724 10.392L2.74724 9.13708L11.2941 9.13708V10.392ZM2.74724 6.62743L11.2941 6.62743V5.37253L2.74724 5.37253V6.62743ZM2.74724 2.86262V1.60772L11.2941 1.60772V2.86262L2.74724 2.86262Z"
          fill="#6F7072"
          fill-rule="evenodd" />
  </g>
  <defs>
    <clipPath id="clip0">
      <rect fill="white" height="11.2941" transform="translate(0 0.352539)" width="11.2941" />
    </clipPath>
  </defs>
</svg>
