<svg fill="none" height="64" viewBox="0 0 64 64" width="64" xmlns="http://www.w3.org/2000/svg">
  <g clip-path="url(#clip0)">
    <path
      d="M29.5335 62.7088C11.3713 36.3789 8 33.6766 8 24C8 10.7451 18.7451 0 32 0C45.2549 0 56 10.7451 56 24C56 33.6766 52.6287 36.3789 34.4665 62.7088C33.2746 64.4305 30.7253 64.4304 29.5335 62.7088ZM32 34C37.5229 34 42 29.5229 42 24C42 18.4771 37.5229 14 32 14C26.4771 14 22 18.4771 22 24C22 29.5229 26.4771 34 32 34Z"
      fill="#981D78" />
  </g>
  <defs>
    <clipPath id="clip0">
      <rect fill="white" height="64" width="64" />
    </clipPath>
  </defs>
</svg>
