<svg fill="none" height="22" viewBox="0 0 22 22" width="22" xmlns="http://www.w3.org/2000/svg">
  <circle cx="11" cy="11" fill="#47A8BD" opacity="0.2" r="11" />
  <path clip-rule="evenodd" d="M14.1249 12.9231V10.359C14.1249 8.78462 13.276 7.46667 11.7812 7.11795V6.76923C11.7812 6.34359 11.4322 6 10.9999 6C10.5676 6 10.2187 6.34359 10.2187 6.76923V7.11795C8.72909 7.46667 7.87492 8.77949 7.87492 10.359V12.9231L6.83325 13.9487V14.4615H15.1666V13.9487L14.1249 12.9231ZM10.9999 15.9999C11.5728 15.9999 12.0416 15.5384 12.0416 14.9743H9.95825C9.95825 15.5384 10.427 15.9999 10.9999 15.9999ZM8.91658 13.436H13.0833V10.3591C13.0833 9.08731 12.2968 8.05141 10.9999 8.05141C9.70304 8.05141 8.91658 9.08731 8.91658 10.3591V13.436Z"
        fill="#47A8BD"
        fill-rule="evenodd" />
</svg>
