<svg width="79" height="20" viewBox="0 0 79 20" fill="none" xmlns="http://www.w3.org/2000/svg">
  <path d="M0 2C0 0.895431 0.895431 0 2 0H77C78.1046 0 79 0.895431 79 2V18C79 19.1046 78.1046 20 77 20H2C0.895432 20 0 19.1046 0 18V2Z" fill="#6F7072" fill-opacity="0.1"/>
  <path d="M10.8094 13.3327H9.38079C8.98644 13.3327 8.6665 13.0127 8.6665 12.6184V7.3803C8.6665 6.98596 8.98644 6.66602 9.38079 6.66602H10.8094C11.2037 6.66602 11.5236 6.98596 11.5236 7.3803V12.6184C11.5236 13.0127 11.2037 13.3327 10.8094 13.3327ZM15.3332 12.6184V7.3803C15.3332 6.98596 15.0132 6.66602 14.6189 6.66602H13.1903C12.796 6.66602 12.476 6.98596 12.476 7.3803V12.6184C12.476 13.0127 12.796 13.3327 13.1903 13.3327H14.6189C15.0132 13.3327 15.3332 13.0127 15.3332 12.6184Z" fill="#6F7072"/>
  <path d="M26.1538 10.5942V13.5H24.7949V5.67969H27.7866C28.6603 5.67969 29.3532 5.90706 29.8652 6.36182C30.3809 6.81657 30.6387 7.41813 30.6387 8.1665C30.6387 8.93278 30.3862 9.52897 29.8813 9.95508C29.38 10.3812 28.6764 10.5942 27.7705 10.5942H26.1538ZM26.1538 9.50391H27.7866C28.27 9.50391 28.6388 9.39111 28.8931 9.16553C29.1473 8.93636 29.2744 8.60693 29.2744 8.17725C29.2744 7.75472 29.1455 7.41813 28.8877 7.16748C28.6299 6.91325 28.2754 6.78255 27.8242 6.77539H26.1538V9.50391ZM36.4019 10.0088H33.1899V12.415H36.9443V13.5H31.8311V5.67969H36.9067V6.77539H33.1899V8.93457H36.4019V10.0088ZM44.2544 13.5H42.8955L39.4097 7.95166V13.5H38.0508V5.67969H39.4097L42.9062 11.2495V5.67969H44.2544V13.5ZM45.8604 13.5V5.67969H48.1699C48.861 5.67969 49.4733 5.83366 50.0068 6.1416C50.5439 6.44954 50.9593 6.88639 51.2529 7.45215C51.5465 8.0179 51.6934 8.66602 51.6934 9.39648V9.78857C51.6934 10.5298 51.5448 11.1815 51.2476 11.7437C50.9539 12.3058 50.5332 12.7391 49.9854 13.0435C49.4411 13.3478 48.8162 13.5 48.1108 13.5H45.8604ZM47.2192 6.77539V12.415H48.1055C48.818 12.415 49.3641 12.193 49.7437 11.749C50.1268 11.3014 50.3219 10.6605 50.3291 9.82617V9.39111C50.3291 8.54248 50.1447 7.89437 49.7759 7.44678C49.4071 6.99919 48.8717 6.77539 48.1699 6.77539H47.2192ZM54.481 13.5H53.1274V5.67969H54.481V13.5ZM62.355 13.5H60.9961L57.5103 7.95166V13.5H56.1514V5.67969H57.5103L61.0068 11.2495V5.67969H62.355V13.5ZM69.9551 12.4849C69.6722 12.8537 69.2801 13.133 68.7788 13.3228C68.2775 13.5125 67.7082 13.6074 67.0708 13.6074C66.4155 13.6074 65.8354 13.4588 65.3306 13.1616C64.8257 12.8644 64.4354 12.4401 64.1597 11.8887C63.8875 11.3337 63.7461 10.6873 63.7354 9.94971V9.3374C63.7354 8.15576 64.0182 7.23372 64.584 6.57129C65.1497 5.90527 65.9393 5.57227 66.9526 5.57227C67.8228 5.57227 68.5138 5.78711 69.0259 6.2168C69.5379 6.64648 69.8459 7.26595 69.9497 8.0752H68.6177C68.4673 7.13346 67.9212 6.6626 66.9795 6.6626C66.3708 6.6626 65.9071 6.88281 65.5884 7.32324C65.2733 7.76009 65.1104 8.40283 65.0996 9.25146V9.85303C65.0996 10.6981 65.2769 11.3551 65.6313 11.8242C65.9894 12.2897 66.4854 12.5225 67.1191 12.5225C67.8138 12.5225 68.3079 12.3649 68.6016 12.0498V10.519H66.9902V9.48779H69.9551V12.4849Z" fill="#6F7072"/>
</svg>
