<svg fill="none" height="16" viewBox="0 0 16 16" width="16" xmlns="http://www.w3.org/2000/svg">
  <path
    d="M11.6156 7.4375L6.11562 4.09375C5.62187 3.81875 5 4.17188 5 4.75V11.25C5 11.825 5.61875 12.1812 6.11562 11.9062L11.6156 8.75C12.1281 8.46562 12.1281 7.725 11.6156 7.4375ZM15.75 8C15.75 3.71875 12.2812 0.25 8 0.25C3.71875 0.25 0.25 3.71875 0.25 8C0.25 12.2812 3.71875 15.75 8 15.75C12.2812 15.75 15.75 12.2812 15.75 8ZM1.75 8C1.75 4.54688 4.54688 1.75 8 1.75C11.4531 1.75 14.25 4.54688 14.25 8C14.25 11.4531 11.4531 14.25 8 14.25C4.54688 14.25 1.75 11.4531 1.75 8Z"
    fill="#6F7072" />
</svg>
