<svg fill="none" height="14" viewBox="0 0 14 14" width="14" xmlns="http://www.w3.org/2000/svg">
  <g clip-path="url(#clip0)">
    <path clip-rule="evenodd" d="M7 0V1.90907C9.90063 1.90907 12.25 4.18723 12.25 6.99993C12.25 7.99901 11.9481 8.92809 11.4362 9.71081L10.4781 8.78172C10.7734 8.25355 10.9375 7.64265 10.9375 6.99993C10.9375 4.89358 9.17219 3.18178 7 3.18178L7 5.09086L4.375 2.54543L7 0ZM3.0625 7.00015C3.0625 9.10649 4.82781 10.8183 7 10.8183V8.90922L9.625 11.4546L7 14.0001V12.091C4.09938 12.091 1.75 9.81285 1.75 7.00015C1.75 6.00107 2.05188 5.07199 2.56375 4.28927L3.52188 5.21835C3.22656 5.74653 3.0625 6.35743 3.0625 7.00015Z"
          fill="#6F7072"
          fill-rule="evenodd" />
  </g>
  <defs>
    <clipPath id="clip0">
      <rect fill="white" height="14" width="14" />
    </clipPath>
  </defs>
</svg>
