<svg width="81" height="20" viewBox="0 0 81 20" fill="none" xmlns="http://www.w3.org/2000/svg">
  <path d="M0 2C0 0.895431 0.895431 0 2 0H79C80.1046 0 81 0.895431 81 2V18C81 19.1046 80.1046 20 79 20H2C0.895429 20 0 19.1046 0 18V2Z" fill="#FDF8ED"/>
  <g clip-path="url(#clip0)">
    <path d="M15.6313 9.35419L10.1313 6.10262C9.68438 5.83856 9 6.09481 9 6.74794V13.2495C9 13.8354 9.63594 14.1886 10.1313 13.8948L15.6313 10.6448C16.1219 10.3557 16.1234 9.64325 15.6313 9.35419Z" fill="#E9BD4A"/>
  </g>
  <path d="M27.6685 10.4868H26.1538V13.5H24.7949V5.67969H27.5449C28.4473 5.67969 29.1437 5.882 29.6343 6.28662C30.1248 6.69124 30.3701 7.27669 30.3701 8.04297C30.3701 8.56576 30.243 9.00439 29.9888 9.35889C29.7381 9.7098 29.3872 9.98014 28.936 10.1699L30.6924 13.4302V13.5H29.2368L27.6685 10.4868ZM26.1538 9.39648H27.5503C28.0086 9.39648 28.3667 9.2819 28.6245 9.05273C28.8823 8.81999 29.0112 8.50309 29.0112 8.10205C29.0112 7.68311 28.8913 7.35905 28.6514 7.12988C28.415 6.90072 28.0605 6.78255 27.5879 6.77539H26.1538V9.39648ZM37.3794 5.67969V10.9058C37.3794 11.7365 37.1126 12.3953 36.5791 12.8823C36.0492 13.3657 35.342 13.6074 34.4575 13.6074C33.5623 13.6074 32.8516 13.3693 32.3252 12.8931C31.7988 12.4132 31.5356 11.749 31.5356 10.9004V5.67969H32.8892V10.9111C32.8892 11.4339 33.0216 11.8332 33.2866 12.1089C33.5516 12.3846 33.9419 12.5225 34.4575 12.5225C35.5031 12.5225 36.0259 11.971 36.0259 10.8682V5.67969H37.3794ZM45.0386 13.5H43.6797L40.1938 7.95166V13.5H38.835V5.67969H40.1938L43.6904 11.2495V5.67969H45.0386V13.5ZM52.8481 13.5H51.4893L48.0034 7.95166V13.5H46.6445V5.67969H48.0034L51.5 11.2495V5.67969H52.8481V13.5ZM55.8882 13.5H54.5347V5.67969H55.8882V13.5ZM63.7622 13.5H62.4033L58.9175 7.95166V13.5H57.5586V5.67969H58.9175L62.4141 11.2495V5.67969H63.7622V13.5ZM71.3623 12.4849C71.0794 12.8537 70.6873 13.133 70.186 13.3228C69.6847 13.5125 69.1154 13.6074 68.478 13.6074C67.8228 13.6074 67.2427 13.4588 66.7378 13.1616C66.2329 12.8644 65.8426 12.4401 65.5669 11.8887C65.2948 11.3337 65.1533 10.6873 65.1426 9.94971V9.3374C65.1426 8.15576 65.4255 7.23372 65.9912 6.57129C66.557 5.90527 67.3465 5.57227 68.3599 5.57227C69.23 5.57227 69.9211 5.78711 70.4331 6.2168C70.9451 6.64648 71.2531 7.26595 71.3569 8.0752H70.0249C69.8745 7.13346 69.3285 6.6626 68.3867 6.6626C67.778 6.6626 67.3143 6.88281 66.9956 7.32324C66.6805 7.76009 66.5176 8.40283 66.5068 9.25146V9.85303C66.5068 10.6981 66.6841 11.3551 67.0386 11.8242C67.3966 12.2897 67.8926 12.5225 68.5264 12.5225C69.221 12.5225 69.7152 12.3649 70.0088 12.0498V10.519H68.3975V9.48779H71.3623V12.4849Z" fill="#E9BD4A"/>
  <defs>
    <clipPath id="clip0">
      <rect width="8" height="8" fill="white" transform="translate(8 6)"/>
    </clipPath>
  </defs>
</svg>
