<svg fill="none" height="12" viewBox="0 0 12 12" width="12" xmlns="http://www.w3.org/2000/svg">
  <path
    d="M10.9205 3.04549L8.95451 1.07951C8.74353 0.868529 8.45738 0.750002 8.15902 0.75H1.875C1.25367 0.75 0.75 1.25367 0.75 1.875V10.125C0.75 10.7463 1.25367 11.25 1.875 11.25H10.125C10.7463 11.25 11.25 10.7463 11.25 10.125V3.84098C11.25 3.54262 11.1315 3.25647 10.9205 3.04549V3.04549ZM7.125 1.875V3.75H4.125V1.875H7.125ZM9.98438 10.125H2.01562C1.97833 10.125 1.94256 10.1102 1.91619 10.0838C1.88982 10.0574 1.875 10.0217 1.875 9.98438V2.01562C1.875 1.97833 1.88982 1.94256 1.91619 1.91619C1.94256 1.88982 1.97833 1.875 2.01562 1.875H3V4.3125C3 4.62316 3.25184 4.875 3.5625 4.875H7.6875C7.99816 4.875 8.25 4.62316 8.25 4.3125V1.96598L10.0838 3.7998C10.0969 3.81286 10.1072 3.82837 10.1143 3.84543C10.1214 3.86249 10.125 3.88078 10.125 3.89925V9.98438C10.125 10.0217 10.1102 10.0574 10.0838 10.0838C10.0574 10.1102 10.0217 10.125 9.98438 10.125V10.125ZM6 5.4375C4.86274 5.4375 3.9375 6.36274 3.9375 7.5C3.9375 8.63726 4.86274 9.5625 6 9.5625C7.13726 9.5625 8.0625 8.63726 8.0625 7.5C8.0625 6.36274 7.13726 5.4375 6 5.4375ZM6 8.4375C5.48306 8.4375 5.0625 8.01694 5.0625 7.5C5.0625 6.98306 5.48306 6.5625 6 6.5625C6.51694 6.5625 6.9375 6.98306 6.9375 7.5C6.9375 8.01694 6.51694 8.4375 6 8.4375Z"
    fill="#6F7072" />
</svg>
