<svg fill="none" height="48" viewBox="0 0 48 48" width="48" xmlns="http://www.w3.org/2000/svg">
  <path
    d="M47.6719 43.9594L36.2906 32.5781C36.075 32.3625 35.7938 32.25 35.4938 32.25H34.2562C37.2094 28.8281 39 24.375 39 19.5C39 8.72812 30.2719 0 19.5 0C8.72812 0 0 8.72812 0 19.5C0 30.2719 8.72812 39 19.5 39C24.375 39 28.8281 37.2094 32.25 34.2562V35.4938C32.25 35.7938 32.3719 36.075 32.5781 36.2906L43.9594 47.6719C44.4 48.1125 45.1125 48.1125 45.5531 47.6719L47.6719 45.5531C48.1125 45.1125 48.1125 44.4 47.6719 43.9594ZM19.5 34.5C11.2125 34.5 4.5 27.7875 4.5 19.5C4.5 11.2125 11.2125 4.5 19.5 4.5C27.7875 4.5 34.5 11.2125 34.5 19.5C34.5 27.7875 27.7875 34.5 19.5 34.5Z"
    fill="white" />
</svg>
