<svg fill="none" height="16" viewBox="0 0 16 16" width="16" xmlns="http://www.w3.org/2000/svg">
  <path
    d="M14.5407 7.38712L15.6005 6.79415C15.9143 6.61864 16.0664 6.26054 15.9725 5.92144C15.593 4.54948 14.8462 3.32315 13.8405 2.34734C13.5849 2.09934 13.1889 2.04909 12.8757 2.22441L11.8178 2.8166C11.4742 2.57824 11.1075 2.37276 10.7228 2.20305V1.01747C10.7228 0.846709 10.6646 0.680737 10.5572 0.545361C10.4498 0.409985 10.2993 0.312791 10.129 0.268891C8.73906 -0.0893993 7.26274 -0.0898508 5.87106 0.268859C5.52095 0.359117 5.27715 0.666311 5.27715 1.01744V2.20302C4.89254 2.37273 4.52582 2.57821 4.18216 2.81657L3.12425 2.22438C2.81105 2.04905 2.41515 2.09931 2.15953 2.34731C1.15384 3.32312 0.407027 4.54941 0.0274628 5.92141C-0.0663631 6.26051 0.085742 6.61861 0.399471 6.79412L1.45931 7.38712C1.41871 7.79477 1.41871 8.20525 1.45931 8.6129L0.399471 9.20587C0.085742 9.38138 -0.0663631 9.73948 0.0274628 10.0786C0.407027 11.4505 1.15384 12.6769 2.15953 13.6527C2.41515 13.9007 2.81105 13.9509 3.12425 13.7756L4.18216 13.1834C4.52582 13.4218 4.89253 13.6272 5.27715 13.7969V14.9825C5.27717 15.1533 5.33541 15.3193 5.4428 15.4546C5.55019 15.59 5.70073 15.6872 5.87099 15.7311C7.26094 16.0894 8.73726 16.0899 10.1289 15.7311C10.479 15.6409 10.7228 15.3337 10.7228 14.9825V13.797C11.1075 13.6273 11.4742 13.4218 11.8178 13.1835L12.8757 13.7756C13.1889 13.951 13.5849 13.9007 13.8405 13.6527C14.8462 12.6769 15.593 11.4506 15.9725 10.0786C16.0664 9.73951 15.9143 9.38141 15.6005 9.2059L14.5407 8.61293C14.5813 8.20487 14.5813 7.79519 14.5407 7.38712ZM12.7873 9.42L14.2458 10.2358C13.9834 10.9225 13.6025 11.5609 13.1192 12.1238L11.6604 11.3074C10.5959 12.1911 10.4403 12.2776 9.12528 12.7276V14.3599C8.38048 14.4831 7.61952 14.4831 6.87472 14.3599V12.7276C5.55989 12.2776 5.40373 12.1908 4.33959 11.3074L2.88081 12.1238C2.39753 11.5609 2.01656 10.9225 1.75421 10.2358L3.21265 9.42C2.9587 8.08777 2.95856 7.91293 3.21265 6.58006L1.75421 5.76428C2.01548 5.07948 2.39691 4.44012 2.88081 3.87625L4.33959 4.69267C5.40413 3.80889 5.55976 3.72241 6.87472 3.27238V1.64018C7.61952 1.51696 8.38048 1.51696 9.12528 1.64018V3.27241C10.4401 3.72241 10.5963 3.80925 11.6604 4.6927L13.1192 3.87628C13.6025 4.43915 13.9834 5.0776 14.2458 5.76431L12.7873 6.58009C13.0413 7.91235 13.0414 8.08712 12.7873 9.42ZM8 4.90325C6.23814 4.90325 4.80479 6.29244 4.80479 8.00003C4.80479 9.70761 6.23814 11.0968 8 11.0968C9.76186 11.0968 11.1952 9.70761 11.1952 8.00003C11.1952 6.29244 9.76186 4.90325 8 4.90325ZM8 9.54842C7.11905 9.54842 6.4024 8.85383 6.4024 8.00003C6.4024 7.14625 7.11905 6.45164 8 6.45164C8.88094 6.45164 9.5976 7.14625 9.5976 8.00003C9.5976 8.85383 8.88094 9.54842 8 9.54842Z"
    fill="#6F7072" />
</svg>
