<svg fill="none" height="12" viewBox="0 0 13 12" width="13" xmlns="http://www.w3.org/2000/svg">
  <path
    d="M10.699 4.3125L11.2494 3.78281C11.3638 3.67266 11.3638 3.49453 11.2494 3.38437L10.8354 2.98594C10.7209 2.87578 10.5358 2.87578 10.4214 2.98594L9.91726 3.47109C9.15989 2.82656 8.20283 2.39531 7.14592 2.28047V1.125H7.8278C7.98853 1.125 8.12003 0.998437 8.12003 0.84375V0.28125C8.12003 0.126563 7.98853 0 7.8278 0L5.29512 0C5.13439 0 5.00289 0.126563 5.00289 0.28125V0.84375C5.00289 0.998437 5.13439 1.125 5.29512 1.125H5.97699V2.28281C3.45405 2.56172 1.49609 4.62187 1.49609 7.125C1.49609 9.81797 3.76333 12 6.56146 12C9.35959 12 11.6268 9.81797 11.6268 7.125C11.6268 6.07734 11.2835 5.10703 10.699 4.3125ZM6.56146 10.875C4.40868 10.875 2.66502 9.19688 2.66502 7.125C2.66502 5.05312 4.40868 3.375 6.56146 3.375C8.71424 3.375 10.4579 5.05312 10.4579 7.125C10.4579 9.19688 8.71424 10.875 6.56146 10.875ZM6.85369 8.25H6.26923C6.1085 8.25 5.97699 8.12344 5.97699 7.96875V4.78125C5.97699 4.62656 6.1085 4.5 6.26923 4.5H6.85369C7.01442 4.5 7.14592 4.62656 7.14592 4.78125V7.96875C7.14592 8.12344 7.01442 8.25 6.85369 8.25Z"
    fill="#6F7072" />
</svg>
