<svg width="24" height="24" viewBox="0 0 24 24" fill="none" xmlns="http://www.w3.org/2000/svg">
  <circle cx="12" cy="12" r="12" fill="#E43458"/>
  <g clip-path="url(#clip0)">
    <path d="M11.1822 10.6981L11.3195 12.9949C11.3273 13.125 11.4367 13.2266 11.569 13.2266H12.4309C12.4947 13.2266 12.556 13.2026 12.6024 13.1595C12.6488 13.1165 12.6767 13.0576 12.6805 12.9949L12.8177 10.6981C12.8262 10.5567 12.712 10.4375 12.5682 10.4375H11.4318C11.288 10.4375 11.1738 10.5567 11.1822 10.6981ZM12.875 14.375C12.875 14.8507 12.4833 15.2363 12 15.2363C11.5168 15.2363 11.125 14.8507 11.125 14.375C11.125 13.8993 11.5168 13.5137 12 13.5137C12.4833 13.5137 12.875 13.8993 12.875 14.375ZM12.8662 6.99188C12.4822 6.33663 11.5185 6.33545 11.1338 6.99188L6.13494 15.5237C5.75115 16.1786 6.23163 17 7.00113 17H16.9988C17.7668 17 18.2495 16.1798 17.8649 15.5237L12.8662 6.99188ZM7.10815 15.8311L11.8917 7.66911C11.9398 7.58704 12.0602 7.58704 12.1083 7.66911L16.8919 15.8311C16.9399 15.9131 16.8798 16.0156 16.7836 16.0156H7.21642C7.12023 16.0156 7.06009 15.9131 7.10815 15.8311Z" fill="white"/>
  </g>
  <defs>
    <clipPath id="clip0">
      <rect width="12" height="12" fill="white" transform="translate(6 6)"/>
    </clipPath>
  </defs>
</svg>
