<svg fill="none" height="11" viewBox="0 0 12 11" width="12" xmlns="http://www.w3.org/2000/svg">
  <path
    d="M5.18223 4.69805L5.31948 6.99493C5.32725 7.12501 5.43669 7.22656 5.56905 7.22656H6.43092C6.49468 7.22656 6.55603 7.20258 6.60242 7.15952C6.64881 7.11646 6.67674 7.05758 6.68048 6.99493L6.81773 4.69805C6.82617 4.55669 6.712 4.4375 6.56817 4.4375H5.43177C5.28796 4.4375 5.1738 4.55669 5.18223 4.69805V4.69805ZM6.875 8.375C6.875 8.8507 6.48325 9.23633 6 9.23633C5.51675 9.23633 5.125 8.8507 5.125 8.375C5.125 7.8993 5.51675 7.51367 6 7.51367C6.48325 7.51367 6.875 7.8993 6.875 8.375ZM6.86619 0.99188C6.48217 0.336635 5.51855 0.335445 5.13382 0.99188L0.134941 9.5237C-0.248851 10.1786 0.231628 11 1.00113 11H10.9988C11.7668 11 12.2495 10.1798 11.8649 9.5237L6.86619 0.99188V0.99188ZM1.10815 9.8311L5.89173 1.66911C5.93984 1.58704 6.06017 1.58704 6.10827 1.66911L10.8919 9.83108C10.9399 9.91311 10.8798 10.0156 10.7836 10.0156H1.21642C1.12023 10.0156 1.06009 9.91313 1.10815 9.8311V9.8311Z"
    fill="#E43458" />
</svg>
