<svg fill="none" height="21" viewBox="0 0 24 21" width="24" xmlns="http://www.w3.org/2000/svg">
  <path
    d="M23.7296 18.0474C24.4987 19.3597 23.5333 21 21.9972 21H2.00196C0.462915 21 -0.498002 19.3571 0.269582 18.0474L10.2673 0.98376C11.0368 -0.329109 12.964 -0.32673 13.7321 0.98376L23.7296 18.0474V18.0474ZM11.9997 14.5195C10.9412 14.5195 10.083 15.3642 10.083 16.4062C10.083 17.4483 10.9412 18.293 11.9997 18.293C13.0583 18.293 13.9164 17.4483 13.9164 16.4062C13.9164 15.3642 13.0583 14.5195 11.9997 14.5195ZM10.18 7.73776L10.4891 13.3159C10.5035 13.5769 10.7228 13.7812 10.9883 13.7812H13.0111C13.2766 13.7812 13.4959 13.5769 13.5103 13.3159L13.8194 7.73776C13.835 7.45582 13.607 7.21875 13.3202 7.21875H10.6792C10.3924 7.21875 10.1644 7.45582 10.18 7.73776V7.73776Z"
    fill="#6F7072" />
</svg>
